<svg xmlns="http://www.w3.org/2000/svg" viewBox="0 0 512 512">
  <defs>
    <linearGradient id="grad" x1="0%" y1="0%" x2="100%" y2="100%">
      <stop offset="0%" style="stop-color:#7c3aed;stop-opacity:1" />
      <stop offset="100%" style="stop-color:#ec4899;stop-opacity:1" />
    </linearGradient>
  </defs>
  
  <!-- Background -->
  <rect width="512" height="512" fill="#1e1b4b" rx="80"/>
  
  <!-- Mountain/Boulder shape -->
  <path d="M 100 400 L 200 250 L 280 320 L 350 200 L 450 380 L 100 400 Z" 
        fill="url(#grad)" opacity="0.3"/>
  <path d="M 150 420 L 230 300 L 320 360 L 400 250 L 450 400 L 150 420 Z" 
        fill="url(#grad)"/>
  
  <!-- Climbing holds/dots -->
  <circle cx="180" cy="340" r="12" fill="#fbbf24"/>
  <circle cx="250" cy="320" r="12" fill="#fbbf24"/>
  <circle cx="320" cy="300" r="12" fill="#fbbf24"/>
  <circle cx="380" cy="280" r="12" fill="#fbbf24"/>
  
  <!-- Hand icon -->
  <g transform="translate(420, 140)">
    <path d="M 0 30 L 0 -10 Q 0 -20 10 -20 Q 20 -20 20 -10 L 20 0 L 25 0 L 25 -15 Q 25 -25 35 -25 Q 45 -25 45 -15 L 45 5 L 50 5 L 50 -10 Q 50 -20 60 -20 Q 70 -20 70 -10 L 70 10 L 75 10 L 75 0 Q 75 -10 85 -10 Q 95 -10 95 0 L 95 35 Q 95 60 70 70 L 30 70 Q 0 60 0 30 Z" 
          fill="#4ade80" stroke="#22c55e" stroke-width="2"/>
  </g>
</svg>
